<svg width="352" height="300" viewBox="0 0 352 300" fill="none" xmlns="http://www.w3.org/2000/svg">
<g clip-path="url(#clip0_393:665)">
<path d="M107.537 22.1966C114.086 9.49525 127.916 0.947255 142.211 0.809384C164.882 0.79215 187.562 0.817997 210.242 0.792147C221.289 0.705977 232.215 5.54869 239.695 13.64C245.744 20.0079 248.57 28.4956 252.698 36.0699C265.83 36.0957 278.962 36.044 292.103 36.0957C306.708 36.2163 321.202 41.7657 332.128 51.4769C345.226 62.8599 353.076 79.9817 353.102 97.3448C353.145 144.178 353.111 191.02 353.119 237.861C353.205 245.978 351.809 254.13 348.811 261.687C342.4 278.119 328.587 291.493 311.913 297.266C305.295 299.619 298.273 300.782 291.25 300.791C214.843 300.791 138.428 300.791 62.0221 300.791C48.3988 300.842 34.8185 296.215 24.0904 287.822C9.31235 276.499 0.18702 258.197 0.18702 239.559C0.152553 192.441 0.178403 145.324 0.169786 98.2065C0.0146812 82.9546 5.80526 67.7715 16.068 56.492C27.2011 44.0491 43.556 36.449 60.2643 36.1216C73.7067 36.0095 87.1491 36.1129 100.592 36.0699C102.927 31.4598 105.193 26.8067 107.537 22.1966ZM140.815 18.5172C133.31 19.1979 126.304 23.9803 123.004 30.7618C120.005 36.6989 117.058 42.6704 114.043 48.5989C112.612 51.6493 109.415 53.7863 106.012 53.7001C91.0956 53.769 76.1797 53.6312 61.2638 53.7604C49.0278 53.8811 37.0072 59.4131 28.9417 68.616C21.7207 76.647 17.7397 87.4268 17.8259 98.2152C17.8 144.755 17.8173 191.295 17.8173 237.835C17.7828 243.247 18.5325 248.701 20.3851 253.811C26.2102 270.804 43.2803 283.109 61.2811 283.117C137.369 283.195 213.456 283.126 289.544 283.152C295.687 283.238 301.892 282.333 307.605 280.024C323.942 273.759 335.472 257.008 335.446 239.498C335.515 192.708 335.455 145.91 335.472 99.1113C335.498 93.8895 334.817 88.6418 333.111 83.6956C327.622 66.8065 311.051 54.3119 293.275 53.8121C277.945 53.5708 262.607 53.7949 247.278 53.7001C244.098 53.7604 240.996 51.9336 239.54 49.1159C236.282 42.86 233.215 36.5007 230.009 30.2276C226.287 23.0497 218.359 18.319 210.285 18.431C187.123 18.5086 163.969 18.3276 140.815 18.5172Z" fill="#333333"/>
<path d="M165 72.1826C184.389 69.5631 204.638 73.5613 221.45 83.6C239.959 94.466 254.246 112.312 260.7 132.785C267.102 152.691 266.034 174.871 257.813 194.095C249.903 212.845 235.271 228.657 217.159 237.955C200.089 246.839 180.063 249.864 161.131 246.434C140.037 242.737 120.494 231.01 107.319 214.129C94.3848 197.826 87.6119 176.809 88.508 156.017C89.2922 135.5 97.5558 115.379 111.42 100.239C125.242 84.9701 144.587 74.8539 165 72.1826ZM172.661 89.158C156.995 90.0196 141.683 96.2928 129.955 106.711C118.943 116.387 111.076 129.571 107.862 143.875C104.57 158.059 105.863 173.242 111.472 186.667C116.996 200.066 126.793 211.656 139.081 219.343C152.204 227.658 168.128 231.389 183.587 229.855C196.676 228.597 209.369 223.556 219.752 215.491C231.816 206.219 240.735 192.949 244.724 178.257C248.998 162.738 247.706 145.763 241.165 131.062C235.823 118.947 226.991 108.4 215.987 101.041C203.346 92.5186 187.878 88.2618 172.661 89.158Z" fill="#333333"/>
</g>
<defs>
<clipPath id="clip0_393:665">
<rect width="351.429" height="300" fill="white"/>
</clipPath>
</defs>
</svg>
