<svg width="24" height="24" viewBox="0 0 24 24" fill="none" xmlns="http://www.w3.org/2000/svg">
<rect width="24" height="24" rx="5" fill="#84EA9E"/>
<path d="M7.3293 10.1855C7.5334 10.0222 7.81406 9.96125 8.06758 10.0249C8.21484 10.0597 8.34375 10.1425 8.46895 10.2241C9.64609 10.9757 10.8225 11.7286 12 12.4798C13.2129 11.7056 14.4252 10.9302 15.6377 10.1556C15.7447 10.0902 15.86 10.0345 15.9848 10.014C16.2926 9.95578 16.6283 10.0825 16.8166 10.3339C16.9318 10.4792 16.9918 10.6624 17 10.8464V10.8851C16.9875 11.1505 16.8543 11.4097 16.6342 11.5614C16.4445 11.6933 16.2455 11.8114 16.0521 11.938C14.9396 12.6487 13.8271 13.3595 12.7148 14.0702C12.5533 14.1681 12.4016 14.2923 12.2145 14.3374C11.9768 14.4011 11.7156 14.3515 11.5123 14.215C10.1449 13.3413 8.77695 12.4687 7.41055 11.5939C7.16836 11.4425 7.01211 11.1714 7 10.8862V10.8614C7.00371 10.6021 7.12344 10.3454 7.3293 10.1855Z" fill="white"/>
</svg>
