<svg width="32" height="32" viewBox="0 0 32 32" fill="none" xmlns="http://www.w3.org/2000/svg">
<path d="M15.6069 0H15.6912C16.0338 0.034375 16.3812 0.08375 16.6869 0.2525C21.3875 2.63438 26.09 5.01375 30.7887 7.39937C31.4944 7.74813 31.9713 8.49375 32 9.28V22.7612C31.9531 23.5319 31.4838 24.2569 30.79 24.6C26.1319 26.9663 21.4688 29.3225 16.81 31.6875C16.4681 31.8638 16.095 31.9725 15.7113 32H15.5381C15.2069 31.9694 14.8812 31.8794 14.5894 31.7188C10.1262 29.3494 5.66125 26.9825 1.19875 24.6112C0.51 24.2631 0.045625 23.54 0 22.7712V9.23812C0.041875 8.46562 0.506875 7.73875 1.1975 7.38938C5.56688 5.06688 9.93875 2.74938 14.3094 0.42875C14.7044 0.18875 15.1419 0.0275 15.6069 0ZM15.4375 1.95125C13.945 2.74437 12.4513 3.53625 10.9581 4.32937C15.2663 6.6125 19.5775 8.88875 23.8856 11.1713C25.6025 10.3194 27.3188 9.46563 29.0331 8.60875C24.645 6.385 20.2575 4.16188 15.8694 1.93938C15.7344 1.8575 15.5688 1.86875 15.4375 1.95125ZM2.89375 8.60938C7.09562 10.8031 11.3006 12.9913 15.5013 15.1869C15.5725 15.2144 15.6512 15.295 15.7288 15.2338C17.7588 14.2225 19.79 13.2131 21.82 12.2019C17.5325 9.92937 13.2431 7.66125 8.95312 5.39313C6.93375 6.46625 4.91313 7.53625 2.89375 8.60938ZM1.87563 10.1938C1.87437 14.2338 1.87563 18.2744 1.87437 22.3144C1.87937 22.4831 1.85125 22.6644 1.9275 22.8219C2.03125 22.9562 2.195 23.0181 2.33875 23.0975C6.46438 25.285 10.5887 27.4756 14.7144 29.6631C14.7144 25.4044 14.7156 21.1463 14.7137 16.8875C10.4338 14.6569 6.155 12.4244 1.87563 10.1938ZM24.6087 12.9137C24.615 14.2762 24.6106 15.6387 24.6112 17.0012C24.6162 17.2319 24.5469 17.4663 24.395 17.6431C24.1313 17.9781 23.6256 18.0813 23.25 17.8813C22.9463 17.7288 22.7394 17.4 22.7406 17.0594C22.735 15.9869 22.74 14.9137 22.7381 13.8406C20.6875 14.8594 18.6381 15.8806 16.5888 16.9C16.5875 21.1656 16.5881 25.4306 16.5881 29.6956C20.9419 27.4931 25.2925 25.285 29.6456 23.0806C29.7675 23.0169 29.8988 22.965 30.0056 22.8762C30.1213 22.79 30.1237 22.6325 30.1262 22.5019C30.1231 18.3881 30.1262 14.2744 30.1244 10.1606C28.2862 11.0794 26.4425 11.9862 24.6087 12.9137Z" fill="#333333"/>
<path d="M10.0639 18.06C10.5057 17.7969 11.1364 17.9869 11.3551 18.4531C11.5814 18.8744 11.4132 19.4444 10.9989 19.6794C9.76511 20.4094 8.52637 21.1306 7.29136 21.8569C6.97699 22.0606 6.54449 22.0475 6.24261 21.8262C6.07574 21.7137 5.97386 21.5356 5.88199 21.3619C5.55199 20.755 5.21011 20.155 4.88449 19.5462C4.65261 19.1206 4.82449 18.5375 5.25074 18.3081C5.66449 18.0556 6.25636 18.2044 6.50386 18.6194C6.72636 18.9975 6.92886 19.3869 7.14449 19.7687C8.11886 19.2019 9.08762 18.6237 10.0639 18.06Z" fill="#333333"/>
</svg>
