<svg width="32" height="32" viewBox="0 0 32 32" fill="none" xmlns="http://www.w3.org/2000/svg">
<path d="M12.1402 3.45328C19.1348 1.23262 27.1957 6.33914 28.1739 13.6076C29.5239 20.6609 23.7717 27.9 16.65 28.3207C9.94891 29.0055 3.45326 23.4489 3.01304 16.7576C2.35761 10.8587 6.46631 5.02828 12.1402 3.45328ZM12.15 5.48806C4.26522 7.78697 2.32826 19.5163 9.14674 24.1435C14.987 29.1326 25.0533 25.2196 26.188 17.687C28.0565 9.94893 19.5652 2.59241 12.15 5.48806Z" fill="white"/>
<path d="M14.6739 9.78262C15.163 9.78262 16.1413 9.78262 16.6304 9.78262C16.6304 11.4163 16.6304 13.0402 16.6304 14.6739C18.2641 14.6739 19.888 14.6739 21.5217 14.6739C21.5217 15.1631 21.5217 16.1413 21.5217 16.6304C19.888 16.6304 18.2641 16.6304 16.6304 16.6304C16.6304 18.2641 16.6304 19.8881 16.6304 21.5218C16.1413 21.5218 15.163 21.5218 14.6739 21.5218C14.6739 19.8881 14.6739 18.2641 14.6739 16.6304C13.0402 16.6304 11.4163 16.6304 9.78259 16.6304C9.78259 16.1413 9.78259 15.1631 9.78259 14.6739C11.4163 14.6739 13.0402 14.6739 14.6739 14.6739C14.6739 13.0402 14.6739 11.4163 14.6739 9.78262Z" fill="white"/>
</svg>
