<svg width="25" height="25" viewBox="0 0 25 25" fill="none" xmlns="http://www.w3.org/2000/svg">
<path d="M8.22431 0.102867C8.41032 0.0687757 8.59991 0.0604024 8.78891 0.0598043C13.0772 0.0598043 17.3661 0.0598043 21.6543 0.0598043C22.0335 0.0568139 22.4217 0.050235 22.7865 0.169254C23.5335 0.390546 24.1316 0.971886 24.4851 1.65311C24.8074 2.26375 24.9444 2.95992 24.9396 3.64712C24.9402 9.56818 24.9414 15.4892 24.939 21.4103C24.9408 22.3899 24.6238 23.4001 23.9342 24.1148C23.4552 24.6208 22.7752 24.939 22.0742 24.9396C17.6071 24.9408 13.1394 24.9402 8.67228 24.9402C7.95577 24.9414 7.26199 24.607 6.77934 24.0843C6.12324 23.3876 5.81223 22.4193 5.80326 21.4737C5.80147 21.012 5.79728 20.5496 5.80565 20.0885C5.82479 19.5777 6.31642 19.1519 6.82419 19.2015C7.33257 19.2231 7.75183 19.7087 7.71534 20.2135C7.75183 20.9533 7.59034 21.7482 7.9462 22.4342C8.09991 22.7297 8.36666 23.0431 8.73149 23.0263C13.1585 23.0263 17.585 23.0263 22.012 23.0263C22.311 23.0448 22.5586 22.8277 22.7118 22.5915C22.9378 22.2446 23.0252 21.8242 23.0257 21.4139C23.0269 15.4916 23.0257 9.56877 23.0263 3.64593C23.0335 3.17464 22.9235 2.68361 22.6286 2.30681C22.4803 2.11842 22.2614 1.95574 22.0096 1.97368C17.5832 1.97368 13.1567 1.97368 8.7303 1.97368C8.31403 1.95693 8.02754 2.33971 7.88221 2.686C7.57718 3.43779 7.7901 4.26674 7.69262 5.04964C7.60051 5.4988 7.15075 5.84031 6.69262 5.79844C6.20996 5.77272 5.7901 5.33253 5.80206 4.84629C5.81642 3.94916 5.71773 3.02033 6.03651 2.16028C6.36726 1.17643 7.17228 0.293058 8.22431 0.102867Z" fill="#333333"/>
<path d="M4.16572 7.99326C4.48749 7.65594 5.06345 7.62006 5.42768 7.90893C5.76441 8.15773 5.89718 8.63919 5.73689 9.02615C5.6717 9.20319 5.53833 9.34135 5.40556 9.47053C4.71237 10.1607 4.0174 10.8503 3.32541 11.5423C6.38462 11.5447 9.44383 11.5411 12.5036 11.5441C12.9893 11.5321 13.4307 11.952 13.454 12.4358C13.4911 12.8575 13.2058 13.2726 12.8069 13.4053C12.6131 13.4735 12.405 13.4544 12.2034 13.4568C9.24407 13.4568 6.28474 13.4562 3.32541 13.4574C4.05627 14.1888 4.79252 14.9155 5.52278 15.6476C5.74886 15.8694 5.85352 16.2068 5.78713 16.5172C5.71596 16.8898 5.40316 17.2008 5.03115 17.2708C4.72314 17.3354 4.38821 17.2325 4.16752 17.0088C2.8912 15.7331 1.61608 14.455 0.339167 13.1799C-0.0244695 12.8372 -0.0400197 12.2074 0.310459 11.8503C1.59455 10.5638 2.88044 9.27855 4.16572 7.99326Z" fill="#333333"/>
<path d="M16.1585 8.68738C16.7183 8.56716 17.2973 9.05281 17.2835 9.62339C17.2859 11.5403 17.2853 13.4571 17.2835 15.374C17.2937 15.8596 16.8762 16.3022 16.3918 16.3255C15.8631 16.374 15.3571 15.9063 15.372 15.374C15.3702 13.4595 15.3702 11.5444 15.3714 9.62996C15.3613 9.17901 15.7141 8.75855 16.1585 8.68738Z" fill="#333333"/>
</svg>
