<svg width="25" height="18" viewBox="0 0 25 18" fill="none" xmlns="http://www.w3.org/2000/svg">
<g clip-path="url(#clip0_397_719)">
<path d="M0.672363 0.667829C1.08789 0.260603 1.66992 0.0384346 2.25 0.0486885C8.9873 0.0486885 15.7246 0.0486885 22.4619 0.0486885C22.8394 0.040876 23.2285 0.0486883 23.584 0.192731C24.3936 0.493024 24.9736 1.30357 25 2.16685V15.5897C24.9419 16.2015 24.6387 16.7894 24.1475 17.1644C23.7534 17.4725 23.2529 17.6351 22.7534 17.6268C15.9175 17.6268 9.08203 17.6268 2.24609 17.6268C1.89111 17.6297 1.53516 17.5516 1.21729 17.3929C0.532715 17.0589 0.0673828 16.3514 0 15.5961V2.16685C0.0234375 1.60533 0.264648 1.05601 0.672363 0.667829ZM2.53613 1.51402C5.65576 4.64488 8.77686 7.77379 11.8955 10.9051C12.2017 11.2406 12.7979 11.2391 13.1045 10.9056C16.2246 7.77476 19.3457 4.64488 22.4653 1.51353C15.8223 1.51353 9.1792 1.51304 2.53613 1.51402ZM1.46533 2.51549C1.46436 6.73033 1.46436 10.9447 1.46533 15.1595C3.56641 13.0526 5.66797 10.9457 7.7666 8.83677C5.66602 6.72984 3.56641 4.62193 1.46533 2.51549ZM17.2354 8.83824C19.334 10.9461 21.4355 13.0521 23.5347 15.1595C23.5352 10.9452 23.5356 6.73082 23.5347 2.51695C21.4346 4.62388 19.333 6.72935 17.2354 8.83824ZM2.53564 16.161C9.1792 16.1634 15.8228 16.1615 22.4658 16.162C20.377 14.0668 18.2891 11.9701 16.1992 9.87584C15.4868 10.5878 14.7793 11.3045 14.0645 12.014C13.2378 12.8114 11.7979 12.8211 10.9604 12.035C10.2349 11.3216 9.52295 10.5936 8.80127 9.87584C6.71191 11.9701 4.625 14.0668 2.53564 16.161Z" fill="#333333"/>
</g>
<defs>
<clipPath id="clip0_397_719">
<rect width="25" height="17.6758" fill="white"/>
</clipPath>
</defs>
</svg>
