<svg width="30" height="30" viewBox="0 0 30 30" fill="none" xmlns="http://www.w3.org/2000/svg">
<path d="M8.76603 0.500666C11.0056 -0.160445 13.4362 -0.166695 15.6751 0.497888C17.9112 1.15275 19.9431 2.47289 21.4646 4.23608C23.016 6.02289 24.0327 8.26872 24.3362 10.6166C24.6285 12.8097 24.314 15.0812 23.4209 17.1069C22.9598 18.1625 22.3445 19.1493 21.6091 20.0354C24.2848 22.7153 26.9646 25.3902 29.641 28.0687C29.8827 28.2958 30.0223 28.6284 29.9938 28.9618C29.9758 29.4527 29.5827 29.8951 29.0994 29.9784C28.7424 30.0472 28.357 29.934 28.1028 29.6722C25.4133 26.9854 22.7271 24.2951 20.0362 21.609C18.691 22.7271 17.1091 23.5632 15.4181 24.0173C12.9188 24.6993 10.2001 24.5576 7.78895 23.6083C5.55701 22.7409 3.59728 21.1965 2.22228 19.2382C0.822978 17.259 0.0375617 14.8555 0.00422841 12.4319C-0.0492438 9.85344 0.750062 7.26733 2.24867 5.16803C3.81951 2.94303 6.15145 1.26664 8.76603 0.500666ZM11.2181 2.27428C8.94312 2.4965 6.76117 3.53747 5.15215 5.16039C3.5584 6.74442 2.52437 8.88053 2.28478 11.1159C2.06048 13.1111 2.45284 15.1722 3.4084 16.9389C4.49728 18.975 6.31187 20.6139 8.45353 21.4805C10.2237 22.2097 12.207 22.4028 14.0869 22.0451C16.0619 21.6777 17.9098 20.684 19.3209 19.2569C20.7431 17.8257 21.7195 15.9562 22.0674 13.968C22.4334 11.9146 22.139 9.74789 21.2237 7.87289C20.2306 5.81386 18.5098 4.11594 16.4348 3.15483C14.8181 2.39511 12.9938 2.09511 11.2181 2.27428Z" fill="#4AD66D"/>
</svg>
