<svg width="20" height="25" viewBox="0 0 20 25" fill="none" xmlns="http://www.w3.org/2000/svg">
<g clip-path="url(#clip0_388:260)">
<path d="M9.48881 0H9.64946C10.3868 0.0239258 11.0928 0.445313 11.4624 1.0835C11.8487 1.72412 11.8633 2.55811 11.5186 3.21973C12.8907 3.65039 14.1153 4.53467 14.9454 5.71045C15.7251 6.80029 16.1553 8.13379 16.1617 9.47412C16.1641 10.4341 16.1622 11.394 16.1626 12.354C16.1612 13.3066 16.2232 14.2915 16.6216 15.1719C17.023 16.0669 17.7842 16.7285 18.2569 17.5811C18.9146 18.7129 19.0909 20.0493 19.0909 21.3384C19.0992 21.728 18.7515 22.0762 18.3619 22.0693C16.4092 22.0718 14.4561 22.0693 12.503 22.0703C12.4996 22.9189 12.1138 23.7583 11.462 24.3037C10.9844 24.7153 10.3697 24.9497 9.7437 25H9.40043C8.72709 24.9482 8.06889 24.6758 7.57573 24.2104C6.98491 23.6665 6.64164 22.8721 6.63871 22.0703C4.68608 22.0693 2.73344 22.0718 0.780805 22.0693C0.392133 22.0767 0.0434996 21.7305 0.0508238 21.3413C0.0434996 19.9121 0.278851 18.4165 1.10991 17.2188C1.49614 16.6377 1.98735 16.1313 2.33793 15.5259C2.83598 14.6743 2.96 13.667 2.97612 12.6973C2.98393 11.6055 2.97514 10.5137 2.98051 9.42139C2.99614 8.0752 3.44243 6.73877 4.23784 5.65186C5.06694 4.50635 6.27446 3.6416 7.62504 3.22266C7.25981 2.53076 7.29643 1.64746 7.73344 0.996094C8.11381 0.40625 8.78862 0.0288086 9.48881 0ZM9.43217 1.479C9.06108 1.54492 8.78373 1.92773 8.84672 2.30078C8.89604 2.70215 9.31987 3.00684 9.71586 2.91357C10.1114 2.84229 10.3912 2.40576 10.2789 2.01758C10.1944 1.65283 9.79887 1.39893 9.43217 1.479ZM5.9019 5.94531C4.99809 6.86328 4.46342 8.13379 4.44584 9.42236C4.44145 10.0747 4.44536 10.7271 4.44389 11.3794C4.4395 12.2769 4.4727 13.1802 4.335 14.0703C4.21586 14.9023 3.9517 15.7202 3.502 16.4341C3.05668 17.167 2.41411 17.7656 2.03276 18.5391C1.71293 19.1797 1.585 19.896 1.53715 20.6055C6.89311 20.606 12.2496 20.605 17.6055 20.6055C17.5572 19.9556 17.4507 19.3003 17.1841 18.7007C16.8897 18.0161 16.3731 17.4678 15.9375 16.874C15.5791 16.3896 15.2857 15.855 15.0933 15.2832C14.7998 14.4204 14.7076 13.5034 14.6993 12.5967C14.6934 11.521 14.7037 10.4458 14.6944 9.37061C14.6612 7.89111 13.9385 6.45117 12.7832 5.52881C11.795 4.72412 10.4966 4.31641 9.22563 4.40723C7.97758 4.48438 6.77153 5.04834 5.9019 5.94531ZM8.10405 22.0713C8.10063 22.6885 8.52592 23.2754 9.11528 23.4614C9.62748 23.6353 10.2276 23.4902 10.606 23.104C10.8785 22.8335 11.0328 22.4541 11.0372 22.0713C10.0596 22.0698 9.08208 22.0698 8.10405 22.0713Z" fill="black"/>
<path d="M5.00197 1.20154C5.36672 1.10389 5.78127 1.34022 5.87697 1.70643C5.97609 2.02527 5.82131 2.39246 5.53078 2.55311C4.75929 3.00379 4.06154 3.58094 3.47902 4.25867C2.23635 5.69275 1.51906 7.57459 1.51467 9.474C1.53225 9.80457 1.31106 10.1332 0.98879 10.2216C0.645041 10.3353 0.241232 10.1386 0.10842 9.80506C0.0259005 9.62488 0.0522675 9.42274 0.0537324 9.23084C0.104514 7.41297 0.696798 5.61609 1.73195 4.12147C2.52883 2.96424 3.58596 1.98817 4.8008 1.28309C4.8633 1.24647 4.93117 1.21766 5.00197 1.20154Z" fill="black"/>
<path d="M13.79 1.20213C13.9756 1.15623 14.1782 1.1865 14.3423 1.28465C15.8164 2.13767 17.0527 3.39549 17.8818 4.88279C18.6797 6.30662 19.1045 7.93943 19.0884 9.57224C19.0698 9.96336 18.6958 10.2881 18.3062 10.2514C17.9351 10.229 17.6211 9.89256 17.6275 9.52049C17.627 7.95799 17.1563 6.40135 16.2949 5.09812C15.6118 4.0576 14.6856 3.17674 13.6084 2.55174C13.3257 2.395 13.1699 2.04246 13.2568 1.72849C13.3179 1.47166 13.5352 1.26365 13.79 1.20213Z" fill="black"/>
</g>
<defs>
<clipPath id="clip0_388:260">
<rect width="19.0918" height="25" fill="white"/>
</clipPath>
</defs>
</svg>
