<svg width="21" height="17" viewBox="0 0 21 17" fill="none" xmlns="http://www.w3.org/2000/svg">
<g clip-path="url(#clip0_128_346)">
<path d="M13.4252 6.15918C13.1677 6.15918 12.959 6.3374 12.959 6.55731V14.0819C12.959 14.3016 13.1677 14.48 13.4252 14.48C13.6827 14.48 13.8913 14.3016 13.8913 14.0819V6.55731C13.8913 6.3374 13.6827 6.15918 13.4252 6.15918Z" fill="#6B6A6A"/>
<path d="M7.92431 6.15918C7.66682 6.15918 7.45813 6.3374 7.45813 6.55731V14.0819C7.45813 14.3016 7.66682 14.48 7.92431 14.48C8.18181 14.48 8.39049 14.3016 8.39049 14.0819V6.55731C8.39049 6.3374 8.18181 6.15918 7.92431 6.15918Z" fill="#6B6A6A"/>
<path d="M3.91522 5.06119V14.8702C3.91522 15.4499 4.16415 15.9944 4.59901 16.385C5.03186 16.7768 5.63426 16.9992 6.26469 17.0001H15.085C15.7156 16.9992 16.318 16.7768 16.7507 16.385C17.1855 15.9944 17.4345 15.4499 17.4345 14.8702V5.06119C18.2989 4.86523 18.859 4.15203 18.7434 3.3945C18.6276 2.63713 17.8721 2.07058 16.9776 2.07043H14.5908V1.57277C14.5935 1.15427 14.3997 0.752413 14.0528 0.456774C13.7059 0.161291 13.2346 -0.00324701 12.7446 0.000174381H8.60507C8.11503 -0.00324701 7.64375 0.161291 7.29685 0.456774C6.94994 0.752413 6.75619 1.15427 6.75892 1.57277V2.07043H4.37211C3.47763 2.07058 2.72208 2.63713 2.60627 3.3945C2.49063 4.15203 3.05078 4.86523 3.91522 5.06119ZM15.085 16.2039H6.26469C5.46763 16.2039 4.84758 15.6191 4.84758 14.8702V5.09618H16.5021V14.8702C16.5021 15.6191 15.882 16.2039 15.085 16.2039ZM7.69128 1.57277C7.68818 1.36546 7.78361 1.16593 7.95587 1.01959C8.12796 0.873251 8.36214 0.792848 8.60507 0.796425H12.7446C12.9875 0.792848 13.2217 0.873251 13.3938 1.01959C13.5661 1.16578 13.6615 1.36546 13.6584 1.57277V2.07043H7.69128V1.57277ZM4.37211 2.86668H16.9776C17.441 2.86668 17.8167 3.18751 17.8167 3.5833C17.8167 3.97909 17.441 4.29993 16.9776 4.29993H4.37211C3.90866 4.29993 3.53298 3.97909 3.53298 3.5833C3.53298 3.18751 3.90866 2.86668 4.37211 2.86668Z" fill="#6B6A6A"/>
<path d="M10.6749 6.15918C10.4174 6.15918 10.2087 6.3374 10.2087 6.55731V14.0819C10.2087 14.3016 10.4174 14.48 10.6749 14.48C10.9324 14.48 11.1411 14.3016 11.1411 14.0819V6.55731C11.1411 6.3374 10.9324 6.15918 10.6749 6.15918Z" fill="#6B6A6A"/>
</g>
<defs>
<clipPath id="clip0_128_346">
<rect width="19.906" height="17" fill="white" transform="translate(0.726562)"/>
</clipPath>
</defs>
</svg>
