<?xml version="1.0" encoding="UTF-8" ?>
<!DOCTYPE svg PUBLIC "-//W3C//DTD SVG 1.1//EN" "http://www.w3.org/Graphics/SVG/1.1/DTD/svg11.dtd">
<svg width="512pt" height="512pt" viewBox="0 0 512 512" version="1.1" xmlns="http://www.w3.org/2000/svg">
<g id="#000000ff">
<path fill="#000000" opacity="1.00" d=" M 187.93 52.84 C 207.39 38.37 231.85 31.15 256.04 31.99 C 279.74 31.22 303.75 38.05 322.99 52.03 C 347.92 69.71 364.64 98.44 367.46 128.90 C 367.78 133.29 368.28 137.72 367.74 142.10 C 366.63 149.19 360.17 154.99 352.99 155.32 C 346.16 155.86 339.41 151.36 337.02 144.99 C 336.00 142.46 336.03 139.68 335.92 136.99 C 335.47 119.69 328.71 102.66 317.28 89.67 C 305.97 76.68 290.05 67.83 273.05 65.04 C 265.45 63.69 257.70 64.01 250.02 64.03 C 231.42 64.25 213.05 71.77 199.60 84.60 C 184.74 98.50 175.97 118.64 176.01 138.99 C 175.99 156.66 176.00 174.33 176.00 192.00 C 240.36 192.03 304.72 191.94 369.07 192.05 C 388.71 192.16 407.24 205.81 413.38 224.43 C 415.23 229.74 416.00 235.38 416.00 241.00 C 416.01 286.33 416.00 331.67 416.00 377.00 C 415.96 385.67 416.32 394.41 414.85 403.00 C 411.60 424.01 400.62 443.67 384.56 457.58 C 371.77 468.75 355.81 476.25 339.02 478.85 C 330.09 480.37 321.01 479.94 311.99 480.00 C 270.33 479.99 228.67 480.02 187.01 479.99 C 165.09 479.98 143.32 471.70 126.95 457.13 C 107.53 440.22 95.94 414.76 96.01 389.00 C 96.00 339.33 95.98 289.66 96.02 239.98 C 95.91 224.55 103.86 209.39 116.58 200.66 C 124.55 195.02 134.26 192.10 144.00 191.97 C 144.01 178.98 144.00 165.98 144.00 152.99 C 144.05 142.95 143.62 132.84 145.29 122.89 C 149.48 95.11 165.23 69.37 187.93 52.84 M 141.15 224.26 C 133.76 225.44 127.87 232.43 128.02 239.92 C 127.98 289.62 128.00 339.33 128.01 389.03 C 128.01 404.49 134.44 419.83 145.45 430.69 C 156.30 441.61 171.58 447.96 186.97 447.99 C 230.64 448.01 274.31 447.99 317.97 448.00 C 322.35 447.99 326.75 448.12 331.12 447.65 C 343.02 446.38 354.48 441.38 363.51 433.53 C 376.04 422.77 383.69 406.58 383.97 390.06 C 384.03 340.01 384.01 289.97 383.98 239.92 C 384.13 231.48 376.56 223.81 368.09 224.02 C 295.06 223.97 222.03 224.03 149.00 223.99 C 146.38 224.00 143.75 223.88 141.15 224.26 Z" />
<path fill="#000000" opacity="1.00" d=" M 225.89 293.02 C 230.66 278.85 246.31 269.57 261.04 272.22 C 275.13 274.22 286.78 286.68 287.84 300.87 C 288.97 312.13 283.58 323.86 274.10 330.11 C 273.25 330.85 271.62 331.35 272.00 332.81 C 271.97 349.88 272.04 366.95 271.98 384.02 C 272.07 389.90 268.50 395.50 263.34 398.20 C 257.57 401.30 249.97 400.27 245.23 395.76 C 241.92 392.82 239.98 388.45 240.02 384.03 C 239.91 366.49 240.14 348.96 239.91 331.43 C 226.82 324.14 220.54 307.03 225.89 293.02 Z" />
</g>
</svg>
