<svg width="13" height="23" viewBox="0 0 13 23" fill="none" xmlns="http://www.w3.org/2000/svg">
<path d="M6.08019 0.141113C6.46398 -0.0400393 6.95031 0.0517575 7.2467 0.35498C8.91662 2.021 10.5826 3.69092 12.2516 5.35791C12.4073 5.51221 12.5763 5.66602 12.6593 5.875C12.8214 6.24805 12.7374 6.71143 12.4527 7.00244C12.0758 7.41748 11.3624 7.43164 10.9713 7.02979C9.82629 5.88574 8.68468 4.73828 7.54015 3.59375C7.54211 9.6792 7.54503 15.7647 7.54796 21.8501C7.55675 22.1626 7.42199 22.4771 7.18078 22.6777C6.90636 22.916 6.50255 22.9907 6.16076 22.8672C5.75695 22.731 5.463 22.3252 5.46545 21.898C5.46007 15.8037 5.46056 9.70996 5.45568 3.61621C4.37121 4.69776 3.28966 5.78174 2.20617 6.86475C2.06652 7.00098 1.93713 7.15479 1.76183 7.2461C1.47521 7.40332 1.1134 7.41211 0.81945 7.26856C0.523064 7.1294 0.301384 6.84131 0.244743 6.51807C0.178825 6.1836 0.295525 5.82276 0.540153 5.58594C2.21691 3.91162 3.89123 2.23535 5.56701 0.560059C5.72375 0.404785 5.8717 0.229004 6.08019 0.141113Z" fill="#84EA9E"/>
</svg>
