<svg width="15" height="15" viewBox="0 0 15 15" fill="none" xmlns="http://www.w3.org/2000/svg">
<path d="M14.2902 7.50038C14.2902 8.2254 13.7306 8.81298 13.0398 8.81298H8.3973V13.6878C8.3973 14.413 7.83752 15.0006 7.14711 15.0004C6.80184 15.0004 6.48933 14.8537 6.26331 14.6162C6.037 14.3785 5.89711 14.0505 5.89726 13.6882L5.89707 8.81278H1.25405C0.909004 8.81278 0.596737 8.66608 0.370249 8.42827C0.144322 8.19105 0.00451665 7.86291 0.00451665 7.50038C0.00433003 6.77548 0.563924 6.18777 1.25471 6.18777H5.89726V1.3129C5.89726 0.587769 6.45717 0 7.14764 0C7.83786 0.000195945 8.39727 0.587377 8.39764 1.31241V6.18777H13.0407C13.731 6.18817 14.2899 6.77548 14.2902 7.50038Z" fill="white"/>
</svg>
