<svg width="20" height="20" viewBox="0 0 20 20" fill="none" xmlns="http://www.w3.org/2000/svg">
<path d="M13.7565 1.69138C14.7592 1.58357 15.7991 1.85466 16.6147 2.44958C17.446 3.04451 18.0401 3.95896 18.2456 4.96052C18.487 6.08865 18.2245 7.31169 17.5413 8.24138C17.2944 8.58943 16.9753 8.87576 16.6776 9.17888C14.0217 11.8344 11.3659 14.4902 8.71002 17.1457C8.59088 17.2636 8.47681 17.3949 8.32213 17.4672C8.17564 17.5418 8.00924 17.5531 7.84986 17.5785C6.11939 17.8261 4.38931 18.073 2.65885 18.3191C2.419 18.3617 2.1608 18.3019 1.9733 18.1441C1.75025 17.9664 1.63306 17.6676 1.67525 17.3851C1.93189 15.5765 2.19127 13.7679 2.44986 11.9597C2.47291 11.7648 2.56236 11.5797 2.7026 11.4429C5.54596 8.5988 8.38931 5.75505 11.2331 2.91169C11.8991 2.22888 12.8069 1.78865 13.7565 1.69138ZM12.392 4.10935C12.0878 4.41755 11.7753 4.71794 11.476 5.03123C12.6417 6.19412 13.8057 7.35935 14.9698 8.52419C15.3069 8.19802 15.635 7.86248 15.967 7.53044C16.4659 7.0238 16.7213 6.29333 16.6545 5.58591C16.5963 4.90427 16.2432 4.24529 15.6854 3.84333C15.1788 3.47029 14.5272 3.30154 13.9026 3.37498C13.335 3.43865 12.7913 3.70076 12.392 4.10935ZM10.2928 6.20701C8.219 8.28474 6.14244 10.3594 4.06666 12.4347C3.86978 13.7953 3.67681 15.1566 3.48228 16.5176C4.81119 16.3316 6.13892 16.1379 7.46744 15.9504C7.519 15.9426 7.57564 15.9379 7.60885 15.8914C9.669 13.8269 11.7354 11.7687 13.7936 9.70232C12.6253 8.53865 11.4635 7.36833 10.2928 6.20701Z" fill="#D7D7D7"/>
</svg>
