<svg width="20" height="25" viewBox="0 0 20 25" fill="none" xmlns="http://www.w3.org/2000/svg">
<g clip-path="url(#clip0)">
<path d="M5.60406 1.13916C5.60097 0.56287 6.12365 0.0535912 6.69994 0.071117C8.89684 0.0659624 11.0938 0.0669933 13.2907 0.071117C13.8721 0.0484366 14.3979 0.559776 14.3958 1.14019C14.4051 1.88246 14.3948 2.62473 14.3979 3.36699C15.8535 3.36906 17.3082 3.36493 18.7639 3.36905C19.268 3.34431 19.7535 3.71235 19.8639 4.20514C19.9886 4.66905 19.7587 5.1938 19.3391 5.42369C19.0422 5.60308 18.6824 5.5639 18.3515 5.56905C12.6453 5.5639 6.93808 5.57009 1.2319 5.56493C0.620555 5.59895 0.0669472 5.04328 0.104061 4.43194C0.107153 3.84328 0.652514 3.334 1.24117 3.36802C2.69478 3.36493 4.14839 3.36906 5.602 3.36699C5.60406 2.62473 5.59478 1.88246 5.60406 1.13916ZM7.80097 2.26802C7.80097 2.63503 7.80097 3.00101 7.80097 3.36802C9.26695 3.36699 10.7329 3.36802 12.1999 3.36699C12.1999 3.00101 12.1989 2.634 12.1989 2.26802C10.7329 2.26802 9.26695 2.26802 7.80097 2.26802Z" fill="#333333"/>
<path d="M1.88855 6.74743C2.55659 6.44331 3.40505 6.9897 3.3968 7.72372C3.40917 11.5742 3.39783 15.4248 3.40195 19.2753C3.40711 19.7732 3.35144 20.2959 3.56072 20.7639C3.88031 21.5546 4.71433 22.0969 5.56793 22.0629C8.56175 22.0588 11.5545 22.066 14.5483 22.0588C15.6329 22.0619 16.5999 21.0938 16.5958 20.0083C16.604 15.9113 16.5896 11.8144 16.603 7.71754C16.605 7.09485 17.2257 6.57733 17.8391 6.67527C18.4009 6.73506 18.8391 7.27733 18.7978 7.83815C18.7947 11.9248 18.802 16.0114 18.7937 20.0979C18.7628 21.7897 17.6226 23.3825 16.0411 23.9742C15.5298 24.1732 14.9803 24.265 14.4329 24.2619C11.4752 24.2608 8.51742 24.2608 5.55969 24.2619C4.90917 24.267 4.25762 24.1299 3.67103 23.8495C2.20402 23.1742 1.1968 21.6165 1.20298 19.999C1.20195 15.9433 1.20299 11.8876 1.20195 7.833C1.17412 7.37217 1.45762 6.91547 1.88855 6.74743Z" fill="#333333"/>
<path d="M7.45767 8.92064C7.93293 8.7557 8.49788 8.9691 8.74633 9.40621C8.93705 9.70415 8.89788 10.0732 8.902 10.4103C8.89788 12.8155 8.90303 15.2206 8.89994 17.6248C8.93396 18.2145 8.42262 18.7598 7.83293 18.7619C7.22571 18.7969 6.67107 18.2464 6.70303 17.6382C6.69994 15.0907 6.69994 12.5423 6.702 9.99487C6.68241 9.51961 7.00612 9.06188 7.45767 8.92064Z" fill="#333333"/>
<path d="M11.8 8.94018C12.4969 8.63502 13.3505 9.24224 13.2969 9.99791C13.3 12.5443 13.3 15.0907 13.2969 17.6371C13.3289 18.2474 12.7732 18.7979 12.1639 18.7618C11.5763 18.7577 11.067 18.2144 11.1 17.6268C11.099 15.0866 11.099 12.5453 11.1 10.0051C11.0794 9.54739 11.3722 9.10203 11.8 8.94018Z" fill="#333333"/>
</g>
<defs>
<clipPath id="clip0">
<rect width="20" height="24.3299" fill="white"/>
</clipPath>
</defs>
</svg>
