<svg width="20" height="25" viewBox="0 0 20 25" fill="none" xmlns="http://www.w3.org/2000/svg">
<path d="M7.69668 0H12.1269C12.9955 0.0654297 13.8466 0.402832 14.4975 0.986816C14.641 1.10059 14.7499 1.25146 14.8925 1.36572C15.8383 1.37988 16.7851 1.36182 17.7309 1.37451C18.6083 1.40088 19.4232 2.01807 19.7025 2.84766C19.8334 3.20117 19.831 3.58203 19.8261 3.95361C19.8261 10.2207 19.8266 16.4878 19.8256 22.7554C19.8388 23.417 19.5385 24.0752 19.0263 24.4951C18.6581 24.8018 18.1879 24.9771 17.7099 25H2.12149C1.25967 24.9722 0.448146 24.3945 0.148341 23.5845C-0.0494127 23.104 0.0111342 22.5757 0.00185684 22.0693C0.00185684 15.9175 0.00185684 9.76562 0.00185684 3.61377C-0.00790878 3.04541 0.2084 2.47607 0.601466 2.06396C1.0082 1.62598 1.6 1.36963 2.19766 1.37109C3.11221 1.37061 4.02676 1.36816 4.94131 1.37256C5.63369 0.574707 6.64297 0.0742188 7.69668 0ZM5.55654 3.22852C8.46182 3.22949 11.3666 3.22949 14.2719 3.22852C13.9745 2.23535 13.0102 1.48584 11.9696 1.47021C10.6166 1.46582 9.26309 1.46826 7.91006 1.46924C6.85147 1.46191 5.85684 2.21777 5.55654 3.22852ZM1.46768 3.56348C1.46524 9.89502 1.46768 16.2266 1.4667 22.5586C1.46865 22.7217 1.45108 22.8926 1.51309 23.0483C1.61709 23.3477 1.93057 23.5527 2.24649 23.5322C7.3749 23.5308 12.5033 23.5332 17.6317 23.5312C18.0194 23.5391 18.3632 23.1914 18.3603 22.8057C18.3627 16.4077 18.3603 10.0093 18.3612 3.61133C18.3852 3.22705 18.0673 2.85645 17.6791 2.84082C17.015 2.83398 16.3505 2.84229 15.6859 2.83691C15.7558 3.1084 15.8148 3.3833 15.8334 3.66357C15.8446 3.86182 15.8705 4.07227 15.7816 4.2583C15.6684 4.5293 15.3793 4.70605 15.0873 4.69727C11.6376 4.69727 8.18789 4.69727 4.73818 4.69727C4.37002 4.71094 4.02285 4.41553 3.98721 4.04688C3.97109 3.6416 4.03018 3.2334 4.1459 2.84473C3.49649 2.83057 2.84658 2.8418 2.19766 2.83887C1.80996 2.82861 1.46377 3.17773 1.46768 3.56348Z" fill="#333333"/>
<path d="M11.744 7.90829C11.621 7.48543 11.9647 7.01668 12.4022 6.99911C13.0385 6.99227 13.6752 6.9952 14.3114 6.99764C14.6083 6.99569 14.893 7.19344 14.9916 7.47371C15.0478 7.61288 15.0409 7.7662 15.0414 7.91317C15.039 8.48202 15.0443 9.05135 15.039 9.6202C15.0331 10.0528 14.5844 10.4093 14.1615 10.3067C13.7948 10.2389 13.5439 9.86922 13.5717 9.50399C12.8402 10.2432 12.102 10.9757 11.3695 11.7139C11.1093 12.0328 10.5868 12.0792 10.2904 11.7852C9.54532 11.0421 8.80362 10.2945 8.0585 9.55135C7.35635 10.2545 6.6542 10.9576 5.95254 11.6612C5.72696 11.898 5.33975 11.9586 5.05752 11.7891C4.65323 11.5763 4.56827 10.9693 4.892 10.6495C5.77432 9.7618 6.66055 8.87752 7.54385 7.99129C7.81387 7.71297 8.30166 7.71346 8.57217 7.9908C9.31387 8.73006 10.0522 9.47323 10.7929 10.2139C11.3754 9.63241 11.956 9.0494 12.5385 8.46737C12.1845 8.49471 11.8246 8.25985 11.744 7.90829Z" fill="#333333"/>
<path d="M6.34563 14.5449C6.64886 14.27 7.17522 14.3286 7.4096 14.665C7.62493 14.9482 7.5888 15.3804 7.33245 15.6265C6.80315 16.1567 6.27581 16.6894 5.74456 17.2178C5.48137 17.4883 5.01018 17.5019 4.73528 17.2417C4.46282 16.9741 4.19475 16.7021 3.92473 16.4321C3.68352 16.1934 3.64593 15.7856 3.8388 15.5063C4.01409 15.2349 4.38469 15.1133 4.68694 15.2266C4.91594 15.2993 5.05706 15.5049 5.22649 15.6611C5.60052 15.29 5.96819 14.9121 6.34563 14.5449Z" fill="#333333"/>
<path d="M9.23726 15.1924C9.31441 15.1704 9.39448 15.166 9.47407 15.1655C11.4267 15.167 13.3798 15.165 15.3325 15.1665C15.7128 15.1587 16.0537 15.4878 16.0654 15.8672C16.0913 16.2676 15.7397 16.6392 15.3378 16.6333C13.3667 16.6348 11.395 16.6348 9.42378 16.6333C9.07906 16.6372 8.76021 16.3662 8.70503 16.0264C8.63228 15.6646 8.88179 15.2822 9.23726 15.1924Z" fill="#333333"/>
<path d="M6.29684 18.7969C6.51657 18.5674 6.88962 18.5078 7.16745 18.6641C7.59567 18.8721 7.68014 19.5107 7.33395 19.8325C6.80661 20.3633 6.27731 20.8921 5.74801 21.4214C5.53464 21.6401 5.17917 21.7046 4.90622 21.563C4.78708 21.5112 4.69675 21.415 4.60788 21.3242C4.37399 21.0854 4.13376 20.8535 3.90182 20.6138C3.68796 20.3809 3.65427 20.0083 3.82223 19.7407C3.9902 19.4507 4.37546 19.3164 4.68844 19.4341C4.91598 19.5078 5.05759 19.7124 5.22653 19.8682C5.58346 19.5112 5.9404 19.1543 6.29684 18.7969Z" fill="#333333"/>
<path d="M9.19868 19.4117C9.31831 19.3682 9.4477 19.3741 9.5727 19.3745C11.5082 19.3775 13.4443 19.3721 15.3793 19.377C15.7954 19.3897 16.1323 19.8125 16.0566 20.2202C16.0078 20.5645 15.6884 20.8438 15.3398 20.8399C13.3681 20.8399 11.3964 20.8399 9.42475 20.8399C9.08979 20.8457 8.77778 20.5899 8.71088 20.2627C8.62495 19.9087 8.85151 19.5181 9.19868 19.4117Z" fill="#333333"/>
</svg>
