<svg width="25" height="25" viewBox="0 0 25 25" fill="none" xmlns="http://www.w3.org/2000/svg">
<g clip-path="url(#clip0_388_121)">
<path d="M9.59112 0H10.0448C10.7795 0.052444 11.5096 0.224033 12.17 0.55499C13.4099 1.1609 14.3992 2.25713 14.8727 3.55346C15.3187 4.75866 15.3167 6.12271 14.8656 7.32587C14.4043 8.57332 13.4664 9.63544 12.2856 10.2475C11.1191 10.862 9.72452 11.0214 8.44804 10.696C7.09213 10.3615 5.88643 9.47352 5.15578 8.28513C4.50965 7.25051 4.23674 5.99287 4.38389 4.7831C4.52594 3.55244 5.11148 2.38035 6.00558 1.52342C6.95822 0.594705 8.2627 0.0468432 9.59112 0Z" fill="#333333"/>
<path d="M1.83248 14.2547C2.74694 13.4757 3.93992 13.0348 5.14155 13.0353C8.21487 13.0337 11.2882 13.0348 14.362 13.0348C15.0163 13.0307 15.6675 13.1641 16.2765 13.4014C16.2342 13.4869 16.1925 13.5729 16.1502 13.6585C15.1044 13.4996 13.9959 14.0144 13.4496 14.9212C13.1227 15.4803 12.7963 16.0404 12.4781 16.6045C11.9766 17.5286 12.0952 18.7318 12.7475 19.5521C12.3992 20.0017 12.1889 20.5577 12.169 21.1269C12.1349 21.7247 12.335 22.3102 12.6522 22.8102C8.70621 22.8107 4.75967 22.8117 0.813646 22.8097C0.415988 22.8179 0.0646639 22.495 0 22.1091V18.0419C0.0392057 16.5948 0.721996 15.1834 1.83248 14.2547Z" fill="#333333"/>
<path d="M18.1426 14.5626C18.1838 14.3106 18.4267 14.1141 18.6813 14.1222C19.2617 14.1202 19.8422 14.1202 20.4226 14.1217C20.6782 14.1135 20.9196 14.3091 20.9618 14.5611C21.0214 14.97 21.0647 15.3814 21.1191 15.7912C21.4358 15.9302 21.7342 16.109 22.0076 16.3208C22.3966 16.1645 22.779 15.9913 23.1685 15.8361C23.4114 15.7429 23.7047 15.8625 23.8249 16.0911C24.112 16.5876 24.4007 17.084 24.6858 17.582C24.8299 17.808 24.775 18.1329 24.5601 18.2943C24.2342 18.5484 23.9012 18.7923 23.5743 19.0443C23.6354 19.3803 23.637 19.7235 23.5743 20.0596C23.9007 20.3111 24.2337 20.555 24.5591 20.8085C24.7744 20.9705 24.8284 21.2968 24.6838 21.5229C24.3982 22.0199 24.111 22.5163 23.8238 23.0127C23.7032 23.2408 23.4114 23.3605 23.1675 23.2673C22.778 23.113 22.3961 22.9399 22.0071 22.7831C21.7317 22.9918 21.4358 23.1741 21.1186 23.3121C21.0647 23.7184 21.0199 24.1258 20.9628 24.5321C20.9246 24.7912 20.6777 24.9918 20.4165 24.9822C19.8391 24.9837 19.2617 24.9837 18.6838 24.9822C18.4241 24.9908 18.1777 24.7882 18.1405 24.53C18.084 24.1247 18.0387 23.7174 17.9852 23.3116C17.6665 23.1746 17.3732 22.9888 17.0957 22.7826C16.7342 22.9369 16.3717 23.0886 16.0092 23.2413C15.7648 23.3666 15.4379 23.2805 15.2984 23.0423C15.002 22.5367 14.7118 22.0285 14.419 21.5214C14.275 21.2958 14.3289 20.971 14.5443 20.8096C14.8712 20.558 15.2027 20.3121 15.5306 20.0621C15.4684 19.7245 15.4674 19.3793 15.5306 19.0417C15.2027 18.7912 14.8707 18.5458 14.5438 18.2938C14.3427 18.1395 14.276 17.8381 14.4012 17.6161C14.6915 17.1044 14.9883 16.5967 15.2826 16.0876C15.4094 15.8462 15.7276 15.7342 15.9761 15.8508C16.3513 16.0046 16.7235 16.165 17.0978 16.3213C17.3717 16.111 17.6685 15.9302 17.9852 15.7918C18.0397 15.3824 18.0835 14.9715 18.1426 14.5626ZM19.1018 17.4272C18.3707 17.5754 17.7413 18.1309 17.501 18.8366C17.2882 19.443 17.361 20.1436 17.7021 20.6894C18.0519 21.2637 18.6813 21.6578 19.3523 21.7133C20.0468 21.7831 20.7638 21.4898 21.2098 20.9537C21.6064 20.4898 21.7892 19.8539 21.7016 19.25C21.6181 18.6176 21.2352 18.0346 20.6909 17.7032C20.2225 17.4109 19.641 17.3136 19.1018 17.4272Z" fill="#333333"/>
</g>
<defs>
<clipPath id="clip0_388_121">
<rect width="24.7963" height="25" fill="white"/>
</clipPath>
</defs>
</svg>
