<svg width="32" height="32" viewBox="0 0 32 32" fill="none" xmlns="http://www.w3.org/2000/svg">
<path d="M32 0.59375H0V5.96875H1.875V24.0938H15.0625V25.9425C12.1264 27.029 12.83 31.3464 16.0001 31.4062C19.1705 31.3462 19.8731 27.0284 16.9375 25.9425V24.0938H30.125V5.96875H32V0.59375ZM16 29.5312C15.4831 29.5312 15.0625 29.1107 15.0625 28.5938C15.1139 27.35 16.8862 27.3504 16.9375 28.5938C16.9375 29.1107 16.5169 29.5312 16 29.5312ZM28.25 22.2188H3.75V5.96875H28.25V22.2188ZM30.125 4.09375H1.875V2.46875H30.125V4.09375Z" fill="#333333"/>
<path d="M9.25666 20.3504L14.6875 14.9196L17.6563 17.8883L24.5 11.0446V13.0312H26.375V7.84375H21.125V9.71875H23.1742L17.6563 15.2367L14.6875 12.2679L7.93091 19.0246L9.25666 20.3504Z" fill="#333333"/>
<path d="M5.625 11.5938H10V13.4688H5.625V11.5938Z" fill="#333333"/>
<path d="M5.625 7.84375H14.1875V9.71875H5.625V7.84375Z" fill="#333333"/>
</svg>
