<svg width="26" height="30" viewBox="0 0 26 30" fill="none" xmlns="http://www.w3.org/2000/svg">
<path d="M24.9999 25.9325L23.2821 6.58896C23.2453 6.15951 22.8833 5.83436 22.46 5.83436H18.9263C18.8772 2.60736 16.2392 0 12.9999 0C9.76065 0 7.12261 2.60736 7.07353 5.83436H3.53979C3.11034 5.83436 2.75451 6.15951 2.7177 6.58896L0.99991 25.9325C0.99991 25.9571 0.993774 25.9816 0.993774 26.0061C0.993774 28.2086 3.01218 30 5.49684 30H20.503C22.9876 30 25.006 28.2086 25.006 26.0061C25.006 25.9816 25.006 25.9571 24.9999 25.9325ZM12.9999 1.65644C15.3251 1.65644 17.2208 3.52147 17.2698 5.83436H8.72997C8.77905 3.52147 10.6748 1.65644 12.9999 1.65644ZM20.503 28.3436H5.49684C3.93856 28.3436 2.67476 27.3129 2.65022 26.0429L4.29439 7.49693H7.06739V10.0123C7.06739 10.4724 7.43549 10.8405 7.89562 10.8405C8.35574 10.8405 8.72384 10.4724 8.72384 10.0123V7.49693H17.2698V10.0123C17.2698 10.4724 17.6379 10.8405 18.0981 10.8405C18.5582 10.8405 18.9263 10.4724 18.9263 10.0123V7.49693H21.6993L23.3496 26.0429C23.3251 27.3129 22.0551 28.3436 20.503 28.3436Z" fill="#4AD66D"/>
</svg>
