<svg width="25" height="25" viewBox="0 0 25 25" fill="none" xmlns="http://www.w3.org/2000/svg">
<path d="M13.7838 0H13.9078C14.4874 0.121582 15.0699 0.233398 15.6339 0.41748C18.1681 1.18115 20.4444 2.73926 22.1168 4.78613C23.5157 6.4834 24.484 8.53369 24.9015 10.6938C24.9659 10.9678 25.045 11.2847 24.8644 11.5337C24.6554 11.874 24.152 11.9443 23.8424 11.7021C23.6324 11.5571 23.5719 11.2949 23.524 11.0596C23.1832 9.20947 22.3922 7.44287 21.2374 5.95801C19.6617 3.90918 17.4195 2.37451 14.9239 1.68945C14.5074 1.55615 14.0714 1.50293 13.649 1.39355C13.3199 1.31152 13.089 0.966797 13.1334 0.631836C13.1627 0.299316 13.4547 0.0283203 13.7838 0Z" fill="#333333"/>
<path d="M2.92234 2.28955C3.4487 1.76807 4.17234 1.39697 4.92868 1.45313C5.55075 1.48096 6.11521 1.81055 6.55661 2.23145C7.48337 3.12891 8.37693 4.06055 9.29587 4.96583C9.61081 5.29053 9.93015 5.62989 10.1064 6.05372C10.3584 6.61036 10.3686 7.26954 10.1294 7.83253C9.90818 8.39405 9.45505 8.813 9.04099 9.23439C8.63865 9.64747 8.22653 10.0513 7.8071 10.4478C8.37058 11.666 9.2114 12.73 10.1142 13.7139C11.1396 14.8316 12.2929 15.8384 13.5761 16.6504C13.8794 16.8242 14.1919 16.9815 14.5024 17.1431C14.999 16.6475 15.4966 16.1533 15.9926 15.6572C16.3364 15.3194 16.706 14.9844 17.1679 14.8203C17.9043 14.5278 18.7827 14.6763 19.3969 15.1714C19.6196 15.3545 19.83 15.5523 20.0312 15.7593C20.6972 16.4292 21.3642 17.0982 22.0307 17.7676C22.3764 18.1197 22.7431 18.4551 23.0351 18.8555C23.3769 19.3452 23.5337 19.9663 23.437 20.5586C23.351 21.1558 23.0039 21.6792 22.5927 22.1055C22.2431 22.4561 21.8891 22.8023 21.5371 23.1499C21.1797 23.522 20.8554 23.9326 20.4316 24.2339C19.7734 24.7276 18.9541 24.9702 18.1377 25H17.8437C15.6216 24.8897 13.5517 23.9502 11.6347 22.8877C8.89157 21.3404 6.45945 19.2554 4.48044 16.8067C3.25925 15.3067 2.17722 13.6846 1.35544 11.9307C0.925266 10.9966 0.537083 10.0371 0.292942 9.03614C0.0649146 8.1963 -0.0254174 7.31641 0.0473365 6.44825C0.123508 5.57276 0.51218 4.73145 1.12741 4.1045C1.72263 3.4961 2.3237 2.89405 2.92234 2.28955ZM4.55906 2.90625C4.30564 2.97657 4.09323 3.14356 3.90964 3.32666C3.374 3.86329 2.83786 4.39991 2.30124 4.93555C2.10642 5.13721 1.91355 5.34669 1.77829 5.59424C1.52536 6.02589 1.4487 6.53565 1.44822 7.02882C1.43894 7.74757 1.59861 8.45362 1.79782 9.13966C2.38083 11.0137 3.30417 12.77 4.43015 14.3731C5.65329 16.1255 7.0864 17.7354 8.71531 19.1206C9.95652 20.1778 11.3091 21.1035 12.7446 21.876C13.4917 22.2696 14.2485 22.6509 15.0449 22.9361C15.915 23.2837 16.8374 23.5088 17.7729 23.5738C18.3574 23.6094 18.9682 23.5059 19.4638 23.1802C19.8877 22.9116 20.1855 22.4991 20.5342 22.147C20.9116 21.7754 21.291 21.4058 21.6596 21.0254C21.9116 20.7622 22.1167 20.395 22.0239 20.0205C21.9331 19.6284 21.6074 19.3638 21.3393 19.0889C20.542 18.2915 19.7451 17.4942 18.9477 16.6973C18.707 16.4585 18.4687 16.1704 18.1162 16.1084C17.7685 16.0396 17.4326 16.2261 17.1919 16.4624C16.5605 17.085 15.9394 17.7173 15.3076 18.3394C14.9819 18.6612 14.4521 18.7398 14.0483 18.521C13.5571 18.2495 13.041 18.0196 12.5776 17.7002C11.1596 16.7774 9.89792 15.6294 8.77927 14.3643C7.83786 13.2984 6.97361 12.1382 6.41941 10.8198C6.3281 10.5796 6.29294 10.3101 6.35691 10.0586C6.43747 9.77101 6.65866 9.55616 6.87253 9.36036C7.4155 8.86378 7.92527 8.33302 8.44577 7.813C8.67771 7.57813 8.90427 7.28272 8.8862 6.93409C8.86814 6.57032 8.60739 6.28516 8.36179 6.04249C7.42136 5.11085 6.49802 4.1626 5.55564 3.23291C5.30124 2.97608 4.92282 2.79932 4.55906 2.90625Z" fill="#333333"/>
<path d="M13.4453 4.56239C13.5181 4.54237 13.5943 4.53358 13.6699 4.53797C16.2905 4.92225 18.6387 6.70594 19.7656 9.0951C20.0908 9.76942 20.3164 10.4906 20.4453 11.2274C20.5044 11.5331 20.3374 11.8661 20.0532 11.995C19.7271 12.1596 19.2862 12.0155 19.1206 11.6893C19.0332 11.5062 19.0049 11.3026 18.9619 11.1063C18.6655 9.78651 17.9517 8.56629 16.9546 7.65272C16.0528 6.80848 14.9121 6.22059 13.6988 5.98573C13.4297 5.95008 13.1382 5.84852 13.0113 5.58778C12.7891 5.20741 13.0186 4.66737 13.4453 4.56239Z" fill="#333333"/>
</svg>
