<svg width="13" height="23" viewBox="0 0 13 23" fill="none" xmlns="http://www.w3.org/2000/svg">
<path d="M5.88274 0.238281C6.13762 0.044433 6.48479 -0.0166022 6.79143 0.0732415C7.11712 0.162597 7.38762 0.423339 7.49309 0.743652C7.56585 0.951171 7.54485 1.17383 7.54729 1.38916C7.54534 7.38867 7.54094 13.3877 7.54046 19.3872C7.95745 19.0029 8.34514 18.5874 8.75042 18.1909C9.50579 17.436 10.2602 16.6802 11.016 15.9263C11.2133 15.7305 11.4892 15.606 11.7699 15.625C12.3578 15.6572 12.8681 16.2383 12.7797 16.8296C12.7475 17.0674 12.6132 17.2783 12.4438 17.4434C10.7123 19.1772 8.98137 20.9121 7.24846 22.6445C6.87053 23.0435 6.17766 23.0527 5.78948 22.6631C4.11174 20.9863 2.43645 19.3066 0.759694 17.6289C0.59612 17.4653 0.414967 17.3052 0.32903 17.084C0.155201 16.6738 0.290944 16.1641 0.635182 15.8848C1.02141 15.5547 1.64934 15.5811 2.00774 15.9414C3.15862 17.0845 4.30364 18.2334 5.45403 19.377C5.46233 13.27 5.45842 7.16211 5.46526 1.05518C5.46672 0.736816 5.62786 0.426757 5.88274 0.238281Z" fill="#9D9C9C"/>
</svg>
