<svg width="17" height="17" viewBox="0 0 17 17" fill="none" xmlns="http://www.w3.org/2000/svg">
<g clip-path="url(#clip0)">
<path d="M13.9641 8.50003C13.6288 8.50003 13.3569 8.77186 13.3569 9.10718V15.1785C13.3569 15.5138 13.0851 15.7857 12.7498 15.7857H1.8214C1.48608 15.7857 1.21426 15.5138 1.21426 15.1785V3.03582C1.21426 2.7005 1.48608 2.42867 1.8214 2.42867H9.10702C9.44235 2.42867 9.71417 2.15685 9.71417 1.82153C9.71417 1.4862 9.44235 1.21442 9.10702 1.21442H1.8214C0.81547 1.21442 0 2.02989 0 3.03582V15.1785C0 16.1844 0.81547 16.9999 1.8214 16.9999H12.7498C13.7558 16.9999 14.5712 16.1844 14.5712 15.1785V9.10714C14.5712 8.77186 14.2994 8.50003 13.9641 8.50003Z" fill="#84EA9E"/>
<path d="M16.3194 0.680953C15.8835 0.244954 15.2922 6.05272e-05 14.6756 0.000131676C14.0587 -0.00164704 13.4669 0.243673 13.0321 0.681344L5.03492 8.67788C4.96858 8.74472 4.91853 8.82597 4.88861 8.91527L3.67435 12.5581C3.56837 12.8762 3.74038 13.22 4.05852 13.3259C4.12024 13.3465 4.18488 13.357 4.24991 13.3571C4.31508 13.357 4.37986 13.3465 4.44176 13.3261L8.08457 12.1119C8.17404 12.082 8.25533 12.0317 8.32196 11.9649L16.3191 3.96777C17.2268 3.0602 17.2269 1.58863 16.3194 0.680953ZM15.4607 3.10986L7.56789 11.0026L5.20977 11.7901L5.99479 9.43497L13.8906 1.54224C14.3247 1.10902 15.0278 1.10973 15.461 1.54381C15.6679 1.75117 15.7846 2.03189 15.7854 2.32484C15.7862 2.61936 15.6693 2.90196 15.4607 3.10986Z" fill="#84EA9E"/>
</g>
<defs>
<clipPath id="clip0">
<rect width="17" height="17" fill="white"/>
</clipPath>
</defs>
</svg>
