<svg width="32" height="32" viewBox="0 0 32 32" fill="none" xmlns="http://www.w3.org/2000/svg">
<g clip-path="url(#clip0)">
<path d="M26.625 30.9989H5.375C3.78975 30.9989 2.5 29.7092 2.5 28.1239V12.9977C2.5 12.4454 2.94769 11.9977 3.5 11.9977C4.05231 11.9977 4.5 12.4454 4.5 12.9977V28.1239C4.5 28.6064 4.8925 28.9989 5.375 28.9989H26.625C27.1075 28.9989 27.5 28.6064 27.5 28.1239V12.9977C27.5 12.4454 27.9477 11.9977 28.5 11.9977C29.0523 11.9977 29.5 12.4454 29.5 12.9977V28.1239C29.5 29.7092 28.2103 30.9989 26.625 30.9989Z" fill="#333333"/>
<path d="M31 16.4974C30.744 16.4974 30.4882 16.3998 30.2929 16.2044L17.8561 3.76776C16.8327 2.74426 15.1674 2.74426 14.1439 3.76776L1.70711 16.2045C1.31661 16.5951 0.683422 16.5951 0.292922 16.2045C-0.0976406 15.814 -0.0976406 15.1808 0.292922 14.7903L12.7297 2.35351C14.5329 0.550256 17.4671 0.550256 19.2703 2.35351L31.707 14.7903C32.0976 15.1808 32.0976 15.8139 31.707 16.2044C31.5119 16.3998 31.2559 16.4974 31 16.4974Z" fill="#333333"/>
<path d="M20 30.9989H12C11.4477 30.9989 11 30.5512 11 29.9989V21.1239C11 19.4008 12.4019 17.9989 14.125 17.9989H17.875C19.5981 17.9989 21 19.4008 21 21.1239V29.9989C21 30.5512 20.5523 30.9989 20 30.9989ZM13 28.9989H19V21.1239C19 20.5036 18.4953 19.9989 17.875 19.9989H14.125C13.5047 19.9989 13 20.5036 13 21.1239V28.9989Z" fill="#333333"/>
</g>
<defs>
<clipPath id="clip0">
<rect width="32" height="32" fill="white"/>
</clipPath>
</defs>
</svg>
