<svg width="32" height="32" viewBox="0 0 32 32" fill="none" xmlns="http://www.w3.org/2000/svg">
<g clip-path="url(#clip0)">
<path d="M29.1098 1.38152C28.9997 1.31357 28.8728 1.2774 28.7435 1.2774H7.85572C6.05996 1.2774 4.59901 2.7241 4.59901 4.49713L4.47626 22.4847H0.701428C0.313999 22.4847 0 22.7987 0 23.1861V26.4266C0.00246596 28.8063 1.93085 30.7347 4.3105 30.7374C4.35872 30.7374 4.40722 30.7325 4.45462 30.7226H21.8821C21.9859 30.73 22.0906 30.7349 22.1961 30.7349C24.6127 30.7305 26.5696 28.7709 26.5704 26.3543V15.8394H31.2985C31.6859 15.8394 31.9999 15.5254 31.9999 15.138V4.72564C31.9914 3.05125 30.7653 1.63223 29.1098 1.38152ZM1.40286 26.4269V23.8878H17.8218V26.3546C17.8209 27.4536 18.2344 28.5123 18.9799 29.3197H4.2146C4.18144 29.32 4.14856 29.3225 4.11596 29.3274C2.59008 29.2236 1.40477 27.9563 1.40286 26.4269ZM25.1676 4.72564V26.3543C25.1662 27.1385 24.8547 27.8898 24.3009 28.4446C23.7707 28.9885 23.0504 29.306 22.2914 29.3302C22.2536 29.3236 22.2153 29.3203 22.1766 29.32H21.93C20.4022 29.1696 19.2348 27.89 19.2246 26.3548V23.1861C19.2246 22.7989 18.9106 22.4847 18.5232 22.4847H5.87912L6.00187 4.50206C6.01201 3.48773 6.84112 2.67259 7.85572 2.68026H25.8643C25.4125 3.26634 25.1673 3.98558 25.1676 4.72564ZM30.5971 14.4366H26.5704V4.72564C26.5888 3.62664 27.4848 2.74575 28.5837 2.74575C29.6827 2.74575 30.5787 3.62664 30.5971 4.72564V14.4366Z" fill="#333333"/>
<path d="M9.00538 8.8764H15.6487C16.0361 8.8764 16.3501 8.5624 16.3501 8.17497C16.3501 7.78754 16.0361 7.47354 15.6487 7.47354H9.00538C8.61795 7.47354 8.30396 7.78754 8.30396 8.17497C8.30396 8.5624 8.61795 8.8764 9.00538 8.8764Z" fill="#333333"/>
<path d="M21.3976 12.4887H9.00538C8.61795 12.4887 8.30396 12.8027 8.30396 13.1902C8.30396 13.5773 8.61795 13.8916 9.00538 13.8916H21.3976C21.7851 13.8916 22.0991 13.5773 22.0991 13.1902C22.0991 12.8027 21.7851 12.4887 21.3976 12.4887Z" fill="#333333"/>
<path d="M21.3976 17.5037H9.00538C8.61795 17.5037 8.30396 17.818 8.30396 18.2051C8.30396 18.5926 8.61795 18.9065 9.00538 18.9065H21.3976C21.7851 18.9065 22.0991 18.5926 22.0991 18.2051C22.0991 17.818 21.7851 17.5037 21.3976 17.5037Z" fill="#333333"/>
</g>
<defs>
<clipPath id="clip0">
<rect width="32" height="32" fill="white"/>
</clipPath>
</defs>
</svg>
