<svg width="23" height="25" viewBox="0 0 23 25" fill="none" xmlns="http://www.w3.org/2000/svg">
<g clip-path="url(#clip0_59:324)">
<path d="M10.5459 0H12.2608C13.2574 0.108187 14.2403 0.437135 15.058 1.02437C16.2237 1.84649 17.0132 3.14035 17.3183 4.52437C17.7959 6.70565 17.1287 9.10039 15.5965 10.7242C14.9538 11.4118 14.1623 11.9561 13.2993 12.328C13.0054 12.4464 12.6458 12.3631 12.4318 12.1301C12.1813 11.8694 12.1448 11.4362 12.3524 11.1394C12.521 10.8801 12.8358 10.7968 13.0917 10.6525C14.2964 10.0156 15.2228 8.88548 15.6209 7.58285C15.9572 6.51657 15.9669 5.33869 15.5878 4.28216C15.3212 3.52875 14.8392 2.846 14.1887 2.37671C13.4703 1.85088 12.581 1.59795 11.6984 1.55945C10.7535 1.51998 9.77003 1.67739 8.95571 2.18226C8.25054 2.61014 7.71838 3.28655 7.39771 4.04045C6.95717 5.07749 6.86311 6.26608 7.18134 7.35088C7.5907 8.92446 8.61165 10.2744 9.84947 11.3007C10.2101 11.6121 10.6087 11.8748 10.9908 12.1589C11.3894 12.4318 11.8139 12.6642 12.2174 12.9288C12.3948 13.0448 12.521 13.2344 12.559 13.443C12.6287 13.7758 12.4508 14.136 12.1511 14.2929C11.9075 14.4289 11.5965 14.4133 11.3587 14.2719C10.7169 13.9045 10.0956 13.5024 9.49567 13.0711C8.21009 12.1213 7.06487 10.941 6.32169 9.51559C5.96545 8.83479 5.69791 8.10624 5.5405 7.3538C5.32754 6.44298 5.36068 5.48684 5.55415 4.57554C5.72422 3.84795 5.99031 3.13597 6.39966 2.50828C6.98154 1.60039 7.83972 0.87037 8.83534 0.454678C9.37676 0.210526 9.96253 0.0921053 10.5459 0Z" fill="#333333"/>
<path d="M6.38697 11.8641C6.72176 11.7281 7.13892 11.8524 7.33775 12.1555C7.54291 12.4913 7.68619 12.8636 7.92157 13.1813C8.39964 13.9221 9.06143 14.5546 9.85578 14.9455C10.6482 15.3275 11.5838 15.405 12.424 15.1394C13.4386 14.8197 14.2598 14.0532 14.8226 13.1686C15.0473 12.8568 15.1881 12.4952 15.3855 12.1672C15.5775 11.8631 15.9878 11.7296 16.3231 11.8572C17.2768 12.2135 18.1891 12.675 19.0639 13.1955C19.9761 13.7608 20.8509 14.4279 21.4874 15.3027C21.9659 15.9586 22.193 16.7544 22.347 17.541C22.6092 18.923 22.5259 20.3358 22.52 21.734C22.5302 22.0034 22.4167 22.2798 22.194 22.4386C21.9011 22.6652 21.4508 22.6423 21.1823 22.3884C20.9986 22.2252 20.9084 21.9762 20.9196 21.733C20.9308 20.7271 20.9596 19.7198 20.8889 18.7154C20.828 18.0132 20.7037 17.3085 20.4338 16.6545C20.1896 16.1063 19.7398 15.6916 19.2924 15.309C18.4201 14.6175 17.4391 14.0726 16.4221 13.6263C16.2671 13.8704 16.1131 14.116 15.9508 14.3558C15.7988 14.5546 15.6365 14.7461 15.4796 14.9416C14.6725 15.8572 13.5892 16.5551 12.384 16.7963C11.2286 17.0337 9.99613 16.8426 8.95714 16.2876C8.16426 15.8719 7.48151 15.2642 6.93229 14.5605C6.69691 14.2661 6.51416 13.9347 6.30315 13.6238C5.45617 14.0064 4.63112 14.445 3.87137 14.9815C3.36065 15.3558 2.85821 15.7651 2.49759 16.2924C2.24808 16.6472 2.13502 17.0741 2.04632 17.4932C1.80071 18.6482 1.76708 19.8324 1.68716 21.0069C1.66377 21.7885 1.64915 22.5702 1.63014 23.3519C8.38112 23.3529 15.1316 23.3514 21.8826 23.3524C22.2067 23.3382 22.5312 23.5302 22.6555 23.8329C22.8041 24.1618 22.6935 24.5848 22.3972 24.7934C22.2505 24.9065 22.0629 24.9523 21.8801 24.9508C14.9606 24.9523 8.04048 24.9503 1.1204 24.9518C0.891841 24.9503 0.645739 24.9708 0.441061 24.8499C0.179852 24.7091 0.0185461 24.4157 0.0273181 24.1209C0.0438873 21.9917 0.0546086 19.8524 0.374784 17.7432C0.485408 17.1769 0.573127 16.598 0.809969 16.0668C1.09554 15.3977 1.57703 14.8324 2.10968 14.3455C2.90305 13.6224 3.83092 13.0687 4.77878 12.5756C5.3051 12.3173 5.83726 12.0692 6.38697 11.8641Z" fill="#333333"/>
<path d="M14.4391 17.4669C15.6681 17.462 16.8977 17.4649 18.1267 17.4654C18.5258 17.4523 18.9025 17.7734 18.9386 18.1735C19.0044 18.6189 18.6233 19.0609 18.173 19.0619C17.2003 19.0702 16.2266 19.0629 15.2539 19.0653C15.2529 19.3412 15.2534 19.617 15.2534 19.8933C16.2125 19.8948 17.1715 19.8918 18.1306 19.8948C18.479 19.8875 18.8153 20.1277 18.9103 20.4644C19.0107 20.7822 18.8845 21.1511 18.6116 21.3416C18.46 21.4562 18.2675 21.4971 18.0809 21.4947C16.8787 21.4932 15.6759 21.4961 14.4737 21.4932C14.0478 21.5112 13.6555 21.1418 13.6564 20.714C13.653 19.887 13.652 19.06 13.6569 18.2335C13.6623 17.8226 14.0297 17.4679 14.4391 17.4669Z" fill="#333333"/>
</g>
<defs>
<clipPath id="clip0_59:324">
<rect width="22.7583" height="25" fill="white"/>
</clipPath>
</defs>
</svg>
