<svg width="25" height="25" viewBox="0 0 25 25" fill="none" xmlns="http://www.w3.org/2000/svg">
<path d="M11.4677 0.0434942C13.3449 -0.108849 15.2584 0.157891 17.0145 0.8426C18.9258 1.57976 20.6468 2.80019 21.9788 4.35543C23.8309 6.49382 24.9152 9.27953 24.9905 12.1082C25.0709 14.4196 24.4821 16.7477 23.3242 18.7488C22.3359 20.462 20.9353 21.9363 19.2718 23.0055C17.2835 24.2918 14.9219 24.9932 12.5541 24.9977C9.76341 25.0172 6.97938 24.0619 4.78797 22.3348C3.26287 21.14 2.02068 19.587 1.1959 17.8336C0.195905 15.7198 -0.193604 13.3225 0.0904362 11.0016C0.382846 8.54906 1.4247 6.19248 3.043 4.32697C5.15014 1.87273 8.24221 0.2974 11.4677 0.0434942ZM11.6083 7.13947C11.6055 8.62886 11.6083 10.1177 11.6072 11.6071C10.2121 11.6071 8.81754 11.6077 7.42246 11.6065C7.21933 11.6093 7.00672 11.5881 6.81476 11.6696C6.45985 11.8035 6.21933 12.1835 6.25282 12.5619C6.27291 13.0139 6.68976 13.4001 7.14121 13.3917C8.63004 13.3945 10.1183 13.3917 11.6072 13.3928C11.6072 14.8627 11.6077 16.3325 11.6066 17.8024C11.5966 18.0546 11.687 18.3119 11.8717 18.4871C12.115 18.7371 12.5095 18.8203 12.8315 18.6852C13.1618 18.5535 13.3985 18.2137 13.3918 17.8554C13.3945 16.3682 13.3918 14.8805 13.3929 13.3928C14.8823 13.3917 16.3722 13.3945 17.8616 13.3917C18.3354 13.4017 18.7612 12.9743 18.7489 12.5005C18.7601 12.0279 18.3371 11.5971 17.8627 11.6082C16.3728 11.6054 14.8828 11.6082 13.3929 11.6071C13.3918 10.1177 13.3951 8.62775 13.3912 7.13835C13.4007 6.66458 12.9727 6.23545 12.4978 6.25052C12.0229 6.23824 11.596 6.66458 11.6083 7.13947Z" fill="#9D9C9C"/>
</svg>
