<svg width="17" height="25" viewBox="0 0 17 25" fill="none" xmlns="http://www.w3.org/2000/svg">
<g clip-path="url(#clip0_67:3)">
<path d="M6.55033 0H9.57231C9.94096 0.0297852 10.2569 0.35498 10.2525 0.728516C10.2564 1.47949 10.252 2.23047 10.2544 2.98145C11.3296 2.9834 12.4048 2.979 13.4795 2.9834C14.2129 2.99219 14.9336 3.32227 15.4204 3.87012C15.8741 4.36719 16.1221 5.03955 16.1128 5.71191C16.1133 11.23 16.1138 16.748 16.1128 22.2666C16.1245 22.9858 15.837 23.7036 15.3252 24.2104C14.8467 24.6968 14.1773 24.979 13.4971 25H2.61771C1.93656 24.9795 1.26811 24.6948 0.788125 24.21C0.275918 23.7051 -0.0111912 22.9873 0.000527518 22.2695C0.000527518 16.7349 -0.000937594 11.2002 0.00101553 5.66553C-0.0107032 4.62646 0.645547 3.62451 1.59818 3.21338C1.95316 3.05273 2.34379 2.97803 2.73246 2.98193C3.79106 2.98145 4.84916 2.98242 5.90775 2.98145C5.90971 2.23047 5.90629 1.47949 5.90922 0.729004C5.90385 0.367676 6.19828 0.0522461 6.55033 0ZM7.37309 1.46484C7.37309 2.45898 7.3726 3.45264 7.37357 4.44629C7.84525 4.44678 8.31693 4.44678 8.78861 4.44629C8.78959 3.45361 8.7891 2.46143 8.7891 1.46875C8.31693 1.46045 7.84525 1.4668 7.37309 1.46484ZM1.46537 5.66504C1.46439 11.2148 1.46439 16.7651 1.46537 22.3149C1.44926 22.9663 2.03373 23.5493 2.68412 23.5347C6.18314 23.5361 9.68266 23.5347 13.1817 23.5352C13.3907 23.5366 13.606 23.5435 13.8067 23.4736C14.2974 23.3208 14.6543 22.8291 14.648 22.3149C14.649 16.7642 14.649 11.2134 14.6475 5.66309C14.6607 5.03125 14.1104 4.45605 13.4776 4.44824C12.4029 4.44434 11.3287 4.44775 10.2544 4.44678C10.2452 4.7373 10.272 5.03027 10.2388 5.31934C10.1773 5.65381 9.86137 5.91211 9.52201 5.91016C8.56108 5.9126 7.60014 5.9126 6.63969 5.91016C6.28666 5.9126 5.96 5.63086 5.91654 5.2793C5.8975 5.00244 5.91361 4.72412 5.90775 4.44678C4.81596 4.44775 3.72367 4.44434 2.63187 4.44824C2.00004 4.45947 1.45072 5.03369 1.46537 5.66504Z" fill="#333333"/>
<path d="M7.03425 7.62493C7.60652 7.32024 8.31501 7.29485 8.91169 7.54485C9.52986 7.80071 10.0035 8.36077 10.1768 9.00432C10.3477 9.60637 10.232 10.2734 9.88484 10.7919C10.9415 11.3945 11.6588 12.5483 11.712 13.766C11.7261 14.3207 11.7164 14.8759 11.7178 15.4311C11.7252 15.8202 11.379 16.1689 10.9893 16.1615C9.03474 16.1625 7.08015 16.162 5.12605 16.1615C4.83699 16.164 4.55818 15.9765 4.45173 15.7084C4.3614 15.4975 4.40437 15.2636 4.3946 15.0414C4.40925 14.391 4.33894 13.727 4.51277 13.0912C4.75251 12.1381 5.38581 11.2944 6.23347 10.7973C5.96394 10.3954 5.82429 9.90618 5.86384 9.42229C5.91511 8.67668 6.3697 7.97014 7.03425 7.62493ZM7.87849 8.86272C7.48933 8.95208 7.2281 9.39592 7.35603 9.77825C7.45808 10.1537 7.8946 10.3969 8.26667 10.2709C8.64167 10.1679 8.88142 9.73137 8.75593 9.36077C8.65486 8.99749 8.24275 8.75969 7.87849 8.86272ZM7.1739 11.9604C6.57185 12.2304 6.10798 12.7831 5.93953 13.4198C5.82234 13.8354 5.86872 14.2714 5.85945 14.6972C7.32429 14.6972 8.78913 14.6972 10.254 14.6972C10.2423 14.2524 10.2969 13.7958 10.1671 13.3632C9.99079 12.7436 9.52693 12.2143 8.93659 11.9565C8.38386 11.7079 7.72566 11.7084 7.1739 11.9604Z" fill="#333333"/>
<path d="M3.48775 17.65C3.60689 17.6193 3.73092 17.628 3.8525 17.6266C6.71969 17.628 9.58687 17.6256 12.4545 17.628C12.8442 17.6222 13.1899 17.9703 13.1831 18.36C13.1899 18.7506 12.8422 19.1002 12.4506 19.0914C9.51998 19.0919 6.58883 19.0924 3.65816 19.0914C3.32027 19.0944 3.00631 18.8341 2.9443 18.5021C2.8608 18.132 3.12008 17.7335 3.48775 17.65Z" fill="#333333"/>
<path d="M3.48252 20.5806C3.57334 20.5557 3.66806 20.5566 3.76133 20.5562C4.70664 20.5581 5.65244 20.5547 6.59775 20.5576C6.9874 20.5527 7.33213 20.9023 7.32383 21.2915C7.3292 21.6797 6.98447 22.0268 6.5958 22.021C5.61728 22.022 4.63877 22.022 3.66025 22.021C3.32187 22.0244 3.00693 21.7646 2.94443 21.4321C2.86142 21.064 3.1168 20.666 3.48252 20.5806Z" fill="#333333"/>
<path d="M9.3447 20.58C9.48142 20.5453 9.62448 20.5585 9.76462 20.5566C10.6606 20.5575 11.5561 20.5551 12.4521 20.5575C12.8422 20.5502 13.1894 20.8979 13.1831 21.2875C13.1904 21.6777 12.8442 22.0278 12.4536 22.0209C11.476 22.0219 10.4985 22.0219 9.52097 22.0209C9.18308 22.0248 8.86765 21.7665 8.80466 21.4345C8.71922 21.0649 8.97654 20.6645 9.3447 20.58Z" fill="#333333"/>
</g>
<defs>
<clipPath id="clip0_67:3">
<rect width="16.1621" height="25" fill="white"/>
</clipPath>
</defs>
</svg>
