<svg width="23" height="23" viewBox="0 0 23 23" fill="none" xmlns="http://www.w3.org/2000/svg">
<path d="M10.487 0.797307C10.7641 0.479125 11.1727 0.289402 11.584 0.32794C12.1615 0.365489 12.6801 0.850667 12.7855 1.45245C12.8751 1.90996 12.7277 2.40403 12.4133 2.73011C10.084 5.20343 7.74635 7.66885 5.41799 10.1441C10.5533 10.1432 15.6885 10.1392 20.8228 10.1461C21.5542 10.1372 22.1792 10.8823 22.1092 11.6481C22.0775 12.3833 21.4273 12.9969 20.7342 12.9544C15.6297 12.9574 10.5253 12.9564 5.42172 12.9544C7.73143 15.4129 10.0514 17.8615 12.3658 20.3151C12.7258 20.6639 12.8975 21.2173 12.7678 21.7212C12.6111 22.4198 11.8965 22.903 11.2324 22.7479C10.8928 22.6916 10.6195 22.4564 10.39 22.2015C7.35176 18.9692 4.29952 15.7528 1.26128 12.5226C0.76874 12.0147 0.765008 11.0947 1.25475 10.5829C4.32751 7.31707 7.41146 4.06114 10.487 0.797307Z" fill="#6B6A6A"/>
</svg>
