<svg width="112" height="110" viewBox="0 0 112 110" fill="none" xmlns="http://www.w3.org/2000/svg">
<g clip-path="url(#clip0)">
<path d="M0 9.16536C11.9902 2.06218 27.1076 -3.39123 40.6843 2.52045C52.2168 6.88929 58.8221 20.7596 54.0321 32.3691C55.7871 35.2363 57.3812 38.1993 58.8069 41.2442C60.9578 39.289 63.1545 37.3795 65.3664 35.4853C64.6799 31.3914 64.5121 26.992 66.5257 23.2648C69.9123 15.963 78.3786 12.3732 86.1128 12.8773C95.6012 13.0301 103.991 17.8878 112.046 22.4552C108 30.866 102.731 38.6291 96.4097 45.4909C90.7044 51.2803 79.9499 52.6246 74.4124 45.888C76.9142 44.2688 79.4007 42.6649 81.9482 41.1373C91.3299 42.6649 94.991 31.9719 99.72 25.9686C93.2825 23.0204 85.7467 20.2708 78.821 23.2037C75.9226 24.3646 74.4887 27.2976 73.6954 30.1236C76.7464 28.596 79.7973 27.1906 82.8483 25.8158C84.0076 28.6265 85.106 31.4678 86.189 34.3244C77.9668 38.0669 69.6987 42.5427 63.7799 49.6C61.4258 52.3947 60.1106 55.9193 60.0577 59.575C70.7971 59.575 81.5364 59.575 92.2757 59.575V82.4885L86.7992 82.5802C84.9534 91.7456 83.0161 100.911 81.1397 110.076C64.1663 110.076 47.1828 110.076 30.1891 110.076C28.328 100.911 26.3296 91.8525 24.5906 82.7176L19.0531 82.4885V59.575H51.088C50.9812 53.2509 51.927 46.3463 48.3727 40.7096C42.7284 31.2998 32.3857 26.0297 22.4397 22.3788L25.094 13.5342C32.8125 16.2424 40.0869 20.0828 46.6794 24.9298C46.6529 21.926 45.7372 18.9975 44.0482 16.515C42.3592 14.0324 39.9728 12.1073 37.191 10.9832C28.6178 7.1948 18.8853 10.0055 10.8003 13.6259C13.3174 20.8971 16.292 28.3669 21.7685 33.9425C25.2313 37.5628 30.9213 36.9976 34.9638 34.8437C37.1147 37.0129 39.2351 39.2431 41.2487 41.5498C33.6976 47.2476 22.1041 47.3698 15.3157 40.4193C7.07818 31.9108 3.05094 20.3624 0 9.16536ZM28.2059 68.7404V73.3231H83.1229V68.7404H28.2059ZM33.8502 82.4885C35.1163 88.5988 36.3977 94.709 37.6486 100.819C49.6591 100.819 61.6697 100.819 73.6802 100.819C74.9158 94.709 76.2277 88.5988 77.4634 82.4885H33.8502Z" fill="#4AD66D"/>
</g>
<defs>
<clipPath id="clip0">
<rect width="112" height="110" fill="white"/>
</clipPath>
</defs>
</svg>
